<?xml version="1.0" encoding="UTF-8" standalone="no"?>
<!DOCTYPE svg PUBLIC "-//W3C//DTD SVG 1.1//EN"
 "http://www.w3.org/Graphics/SVG/1.1/DTD/svg11.dtd">
<!-- Generated by graphviz version 2.43.0 (0)
 -->
<!-- Title: %3 Pages: 1 -->
<svg width="216pt" height="336pt"
 viewBox="0.00 0.00 216.00 336.00" xmlns="http://www.w3.org/2000/svg" xmlns:xlink="http://www.w3.org/1999/xlink">
<g id="graph0" class="graph" transform="scale(1 1) rotate(0) translate(4 332)">
<title>%3</title>
<polygon fill="white" stroke="transparent" points="-4,4 -4,-332 212,-332 212,4 -4,4"/>
<!-- 139538751861968 -->
<g id="node1" class="node">
<title>139538751861968</title>
<polygon fill="#caff70" stroke="black" points="130.5,-31 76.5,-31 76.5,0 130.5,0 130.5,-31"/>
<text text-anchor="middle" x="103.5" y="-7" font-family="monospace" font-size="10.00"> ()</text>
</g>
<!-- 139538765499504 -->
<g id="node2" class="node">
<title>139538765499504</title>
<polygon fill="lightgrey" stroke="black" points="160,-86 47,-86 47,-67 160,-67 160,-86"/>
<text text-anchor="middle" x="103.5" y="-74" font-family="monospace" font-size="10.00">MseLossBackward0</text>
</g>
<!-- 139538765499504&#45;&gt;139538751861968 -->
<g id="edge7" class="edge">
<title>139538765499504&#45;&gt;139538751861968</title>
<path fill="none" stroke="black" d="M103.5,-66.79C103.5,-60.07 103.5,-50.4 103.5,-41.34"/>
<polygon fill="black" stroke="black" points="107,-41.19 103.5,-31.19 100,-41.19 107,-41.19"/>
</g>
<!-- 139538765510016 -->
<g id="node3" class="node">
<title>139538765510016</title>
<polygon fill="lightgrey" stroke="black" points="154,-141 53,-141 53,-122 154,-122 154,-141"/>
<text text-anchor="middle" x="103.5" y="-129" font-family="monospace" font-size="10.00">AddmmBackward0</text>
</g>
<!-- 139538765510016&#45;&gt;139538765499504 -->
<g id="edge1" class="edge">
<title>139538765510016&#45;&gt;139538765499504</title>
<path fill="none" stroke="black" d="M103.5,-121.75C103.5,-114.8 103.5,-104.85 103.5,-96.13"/>
<polygon fill="black" stroke="black" points="107,-96.09 103.5,-86.09 100,-96.09 107,-96.09"/>
</g>
<!-- 139538765508624 -->
<g id="node4" class="node">
<title>139538765508624</title>
<polygon fill="lightgrey" stroke="black" points="101,-196 0,-196 0,-177 101,-177 101,-196"/>
<text text-anchor="middle" x="50.5" y="-184" font-family="monospace" font-size="10.00">AccumulateGrad</text>
</g>
<!-- 139538765508624&#45;&gt;139538765510016 -->
<g id="edge2" class="edge">
<title>139538765508624&#45;&gt;139538765510016</title>
<path fill="none" stroke="black" d="M59.25,-176.75C66.97,-169.03 78.4,-157.6 87.72,-148.28"/>
<polygon fill="black" stroke="black" points="90.31,-150.64 94.91,-141.09 85.36,-145.69 90.31,-150.64"/>
</g>
<!-- 139538949794576 -->
<g id="node5" class="node">
<title>139538949794576</title>
<polygon fill="lightblue" stroke="black" points="80,-262 21,-262 21,-232 80,-232 80,-262"/>
<text text-anchor="middle" x="50.5" y="-250" font-family="monospace" font-size="10.00">l1.bias</text>
<text text-anchor="middle" x="50.5" y="-239" font-family="monospace" font-size="10.00"> (1)</text>
</g>
<!-- 139538949794576&#45;&gt;139538765508624 -->
<g id="edge3" class="edge">
<title>139538949794576&#45;&gt;139538765508624</title>
<path fill="none" stroke="black" d="M50.5,-231.84C50.5,-224.21 50.5,-214.7 50.5,-206.45"/>
<polygon fill="black" stroke="black" points="54,-206.27 50.5,-196.27 47,-206.27 54,-206.27"/>
</g>
<!-- 139538765509824 -->
<g id="node6" class="node">
<title>139538765509824</title>
<polygon fill="lightgrey" stroke="black" points="196,-196 119,-196 119,-177 196,-177 196,-196"/>
<text text-anchor="middle" x="157.5" y="-184" font-family="monospace" font-size="10.00">TBackward0</text>
</g>
<!-- 139538765509824&#45;&gt;139538765510016 -->
<g id="edge4" class="edge">
<title>139538765509824&#45;&gt;139538765510016</title>
<path fill="none" stroke="black" d="M148.58,-176.75C140.72,-169.03 129.07,-157.6 119.58,-148.28"/>
<polygon fill="black" stroke="black" points="121.84,-145.6 112.25,-141.09 116.94,-150.59 121.84,-145.6"/>
</g>
<!-- 139538765508144 -->
<g id="node7" class="node">
<title>139538765508144</title>
<polygon fill="lightgrey" stroke="black" points="208,-256.5 107,-256.5 107,-237.5 208,-237.5 208,-256.5"/>
<text text-anchor="middle" x="157.5" y="-244.5" font-family="monospace" font-size="10.00">AccumulateGrad</text>
</g>
<!-- 139538765508144&#45;&gt;139538765509824 -->
<g id="edge5" class="edge">
<title>139538765508144&#45;&gt;139538765509824</title>
<path fill="none" stroke="black" d="M157.5,-237.37C157.5,-229.25 157.5,-216.81 157.5,-206.39"/>
<polygon fill="black" stroke="black" points="161,-206.17 157.5,-196.17 154,-206.17 161,-206.17"/>
</g>
<!-- 139538949794864 -->
<g id="node8" class="node">
<title>139538949794864</title>
<polygon fill="lightblue" stroke="black" points="193,-328 122,-328 122,-298 193,-298 193,-328"/>
<text text-anchor="middle" x="157.5" y="-316" font-family="monospace" font-size="10.00">l1.weight</text>
<text text-anchor="middle" x="157.5" y="-305" font-family="monospace" font-size="10.00"> (1, 1)</text>
</g>
<!-- 139538949794864&#45;&gt;139538765508144 -->
<g id="edge6" class="edge">
<title>139538949794864&#45;&gt;139538765508144</title>
<path fill="none" stroke="black" d="M157.5,-297.8C157.5,-288.7 157.5,-276.79 157.5,-266.9"/>
<polygon fill="black" stroke="black" points="161,-266.84 157.5,-256.84 154,-266.84 161,-266.84"/>
</g>
</g>
</svg>
